# xmcd
#
# Track frame offsets: 
#        150
#        14549
#        27329
#        48399
#        66265
#        84200
#        100027
#        116879
#        133074
#        150756
#        172037
#        186099
#        199792
#        216859
#        235969
#
# Disc length: 3343 seconds
#
# Revision: 0
# Processed by: cddbd v1.5.2PL0 Copyright (c) Steve Scherf et al.
# Submitted via: ExactAudioCopy v1.0b1
#
DISCID=c90d0d0f
DTITLE=B.B. and The Blues Shacks - Businessmen
DYEAR=2014
DGENRE=Modern Electric Blues, Contemporary Blues
TTITLE0=Out Of Tears
TTITLE1=Gimme This, Gimme That
TTITLE2=Take My Name
TTITLE3=Businessmen
TTITLE4=Buckle Up (Instrumental)
TTITLE5=Lovin' Might
TTITLE6=Pardon Me
TTITLE7=Rain All Down My Way
TTITLE8=Who's Crying Now
TTITLE9=It Was A Dream
TTITLE10=Hot Pants
TTITLE11=Green Eye
TTITLE12=I Overpaid My Dues
TTITLE13=Blues Shadow
TTITLE14=Goodbye Everybody
EXTD=
EXTT0=
EXTT1=
EXTT2=
EXTT3=
EXTT4=
EXTT5=
EXTT6=
EXTT7=
EXTT8=
EXTT9=
EXTT10=
EXTT11=
EXTT12=
EXTT13=
EXTT14=
PLAYORDER=
